<svg width="28" height="28" viewBox="0 0 28 28" fill="none" xmlns="http://www.w3.org/2000/svg">
<rect width="28" height="28" rx="5.6" fill="#22BE61"/>
<path d="M10.78 23.8C10.3444 23.8 9.96334 23.6705 9.63667 23.4114C9.31 23.1524 9.09223 22.8172 8.98334 22.4058L7.93334 18.3148H20.0667L19.0167 22.4058C18.9078 22.8172 18.69 23.1524 18.3633 23.4114C18.0367 23.6705 17.6556 23.8 17.22 23.8H10.78ZM14 11.0013C14 9.63003 14.4744 8.44158 15.4233 7.43597C16.3722 6.43036 17.5544 5.8209 18.97 5.60759C19.0478 5.59236 19.1178 5.59998 19.18 5.63045C19.2422 5.66092 19.3044 5.69901 19.3667 5.74472C19.4289 5.79043 19.4718 5.84742 19.4955 5.91568C19.5191 5.98394 19.5228 6.05646 19.5067 6.13325C19.3356 7.33694 18.834 8.38429 18.0021 9.27532C17.1702 10.1664 16.1473 10.7112 14.9333 10.9099V12.8297H21.4667C21.7311 12.8297 21.9529 12.9175 22.1321 13.093C22.3113 13.2685 22.4006 13.4855 22.4 13.7439V15.5723C22.4 16.0751 22.2174 16.5057 21.8521 16.864C21.4869 17.2224 21.0473 17.4013 20.5333 17.4006H7.46667C6.95334 17.4006 6.51405 17.2218 6.14881 16.864C5.78356 16.5063 5.60063 16.0757 5.60001 15.5723V13.7439C5.60001 13.4849 5.68961 13.2679 5.86881 13.093C6.04801 12.9181 6.26952 12.8303 6.53334 12.8297H13.0667V10.9099C11.8533 10.7118 10.8307 10.1673 9.99881 9.27624C9.16689 8.38521 8.66507 7.33755 8.49334 6.13325C8.47778 6.05707 8.48183 5.98485 8.50547 5.91659C8.52912 5.84833 8.57174 5.79104 8.63334 5.74472C8.69556 5.69901 8.75778 5.66092 8.82001 5.63045C8.88223 5.59998 8.95223 5.59236 9.03001 5.60759C10.4456 5.8209 11.6278 6.43036 12.5767 7.43597C13.5256 8.44158 14 9.63003 14 11.0013Z" fill="white"/>
</svg>
