<svg width="28" height="28" viewBox="0 0 28 28" fill="none" xmlns="http://www.w3.org/2000/svg">
<rect width="28" height="28" rx="5.6" fill="transparent"/>
<path d="M21.7539 12.3169H21.0778C20.9155 10.4808 20.0996 8.7741 18.7902 7.53147C17.4808 6.28885 15.7724 5.59998 14 5.59998C12.2276 5.59998 10.5192 6.28885 9.20983 7.53147C7.90044 8.7741 7.08455 10.4808 6.9222 12.3169H6.24616C6.07479 12.3169 5.91044 12.3877 5.78926 12.5138C5.66808 12.6398 5.60001 12.8108 5.60001 12.9891C5.60285 14.5877 6.02573 16.1551 6.82294 17.5217C7.62015 18.8884 8.76133 20.0023 10.1231 20.743V21.0556C10.1231 21.4121 10.2592 21.7541 10.5016 22.0062C10.7439 22.2583 11.0726 22.4 11.4154 22.4H16.5846C16.9274 22.4 17.2561 22.2583 17.4984 22.0062C17.7408 21.7541 17.8769 21.4121 17.8769 21.0556V20.743C19.2387 20.0023 20.3799 18.8884 21.1771 17.5217C21.9743 16.1551 22.3972 14.5877 22.4 12.9891C22.4 12.8108 22.3319 12.6398 22.2108 12.5138C22.0896 12.3877 21.9252 12.3169 21.7539 12.3169ZM19.7782 12.3169H15.6251C16.4085 11.0942 17.5937 10.2108 18.9584 9.83225C19.4047 10.5873 19.6846 11.4359 19.7782 12.3169ZM17.6734 8.30298C17.8215 8.42902 17.9634 8.56206 18.099 8.7021C16.379 9.33158 14.9575 10.6253 14.1292 12.3152H11.7465C12.1504 11.1375 12.8939 10.1183 13.8755 9.3967C14.8571 8.67512 16.0289 8.2864 17.2308 8.28366C17.3786 8.28366 17.5264 8.29122 17.6734 8.30298ZM14 6.93924C14.5185 6.9396 15.0346 7.01223 15.5346 7.15519C14.317 7.46942 13.2005 8.11202 12.2976 9.01823C11.3948 9.92443 10.7375 11.0622 10.392 12.3169H8.22178C8.38206 10.8388 9.05961 9.47369 10.1253 8.48191C11.1909 7.49013 12.5702 6.94101 14 6.93924ZM16.961 19.7112C16.8483 19.765 16.7529 19.8515 16.6861 19.9603C16.6194 20.069 16.5841 20.1955 16.5846 20.3245V21.0556H11.4154V20.3245C11.4159 20.1955 11.3806 20.069 11.3139 19.9603C11.2471 19.8515 11.1517 19.765 11.039 19.7112C9.90268 19.1672 8.92388 18.3218 8.20086 17.2599C7.47784 16.198 7.03603 14.957 6.91978 13.6613H21.0778C20.9618 14.9567 20.5203 16.1976 19.7978 17.2595C19.0752 18.3213 18.0969 19.1668 16.961 19.7112Z" fill="white"/>
</svg>
